<?xml version="1.0" standalone="no"?>
<!DOCTYPE svg PUBLIC "-//W3C//DTD SVG 20010904//EN"
 "http://www.w3.org/TR/2001/REC-SVG-20010904/DTD/svg10.dtd">
<svg version="1.0" xmlns="http://www.w3.org/2000/svg"
 width="1216.000000pt" height="1216.000000pt" viewBox="0 0 1216.000000 1216.000000"
 preserveAspectRatio="xMidYMid meet">
<metadata>
Created by potrace 1.11, written by Peter Selinger 2001-2013
</metadata>
<g transform="translate(0.000000,1216.000000) scale(0.100000,-0.100000)"
fill="#000000" stroke="none">
<path d="M3480 10858 c-25 -5 -58 -10 -75 -12 -73 -11 -282 -87 -296 -108 -3
-5 -8 -9 -10 -9 -13 2 -49 -13 -49 -19 0 -5 -10 -12 -22 -16 -13 -4 -25 -10
-28 -13 -3 -4 -30 -24 -60 -46 -30 -22 -56 -43 -58 -47 -2 -5 -10 -8 -17 -8
-7 0 -15 -3 -17 -7 -1 -5 -34 -34 -73 -65 -38 -31 -85 -70 -103 -86 -18 -16
-52 -46 -75 -65 -40 -33 -70 -62 -233 -216 -39 -38 -76 -71 -82 -74 -12 -8
-191 -46 -287 -62 -81 -13 -407 -103 -520 -144 -33 -12 -67 -24 -76 -26 -9 -2
-35 -13 -58 -24 -22 -12 -41 -19 -41 -16 0 3 -12 -3 -27 -12 -15 -10 -27 -16
-28 -14 0 4 -111 -43 -135 -58 -8 -6 -48 -26 -87 -46 -40 -20 -73 -41 -73 -46
0 -5 -3 -8 -8 -7 -6 3 -109 -58 -122 -72 -3 -3 -22 -16 -42 -30 -21 -14 -38
-28 -38 -32 0 -5 -4 -8 -9 -8 -10 0 -64 -47 -156 -135 -197 -189 -357 -470
-446 -783 -11 -40 -22 -83 -25 -95 -5 -30 -18 -90 -20 -99 -1 -5 -2 -9 -4 -10
-1 -2 -3 -12 -4 -23 -2 -11 -6 -40 -11 -65 -17 -101 -29 -196 -40 -335 -4 -44
-10 -105 -12 -135 -3 -30 -7 -1308 -10 -2840 -3 -2448 -2 -2791 11 -2828 9
-23 15 -45 15 -47 0 -19 26 -85 33 -85 5 0 7 -4 4 -9 -3 -5 1 -14 9 -21 8 -7
15 -18 15 -25 0 -15 111 -131 156 -161 72 -51 225 -114 309 -128 17 -2 30 -5
30 -6 0 -7 205 -23 285 -23 93 1 234 13 260 23 3 1 8 2 11 2 11 -2 142 36 174
49 17 7 32 13 35 13 3 1 37 19 75 41 176 103 272 257 290 467 2 20 6 42 10 48
3 5 1 10 -5 10 -6 0 -9 4 -6 9 3 5 8 43 11 85 3 42 8 93 10 114 2 20 6 80 10
132 4 52 9 118 11 145 5 60 11 134 19 235 5 73 8 108 20 235 3 33 8 92 11 130
2 39 6 84 9 100 5 36 18 206 19 257 1 21 3 38 6 38 3 0 6 24 7 52 1 53 7 121
19 233 8 77 11 106 18 181 17 181 27 281 32 319 3 17 7 45 10 64 4 29 13 74
30 146 11 43 13 50 14 53 2 1 3 5 4 10 15 65 94 240 123 270 7 7 13 17 13 22
0 13 130 143 162 163 82 51 121 68 213 92 111 29 377 36 403 10 3 -3 0 -5 -7
-5 -7 0 -9 -5 -5 -12 11 -18 12 -48 2 -48 -5 0 -6 -6 -2 -12 11 -18 12 -48 2
-48 -5 0 -6 -6 -2 -12 11 -18 12 -48 2 -48 -5 0 -6 -6 -2 -12 11 -18 12 -48 2
-48 -5 0 -6 -6 -2 -12 11 -18 12 -48 2 -48 -5 0 -6 -6 -2 -12 11 -18 12 -48 2
-48 -5 0 -6 -6 -2 -12 11 -18 12 -48 2 -48 -5 0 -6 -6 -2 -12 12 -19 12 -48 1
-48 -6 0 -6 -5 0 -12 5 -7 7 -35 6 -63 -5 -70 -5 -67 0 -97 2 -16 0 -28 -5
-28 -5 0 -6 -5 -2 -12 11 -18 11 -78 1 -78 -6 0 -6 -5 -1 -12 11 -16 11 -39 1
-55 -5 -7 -4 -13 1 -13 5 0 6 -17 2 -39 -4 -22 -4 -45 1 -52 4 -7 4 -20 -1
-29 -5 -9 -5 -22 0 -30 5 -8 5 -21 0 -30 -5 -9 -5 -22 0 -30 5 -8 5 -21 0 -31
-5 -9 -7 -19 -3 -22 10 -10 10 -51 0 -64 -6 -8 -6 -13 0 -13 11 0 11 -29 -1
-48 -4 -6 -3 -12 2 -12 10 0 9 -30 -2 -48 -4 -6 -3 -12 2 -12 5 0 7 -12 5 -27
-5 -35 -5 -41 0 -75 2 -16 0 -28 -6 -28 -6 0 -6 -5 0 -12 5 -7 8 -22 7 -33 -2
-21 -4 -77 -4 -107 0 -10 0 -25 0 -33 0 -8 0 -22 0 -30 0 -8 0 -22 0 -30 0 -8
0 -22 0 -30 0 -8 0 -21 0 -27 0 -7 1 -24 3 -38 2 -14 -1 -31 -6 -37 -6 -8 -6
-13 0 -13 11 0 11 -29 -1 -48 -4 -6 -3 -12 2 -12 10 0 9 -30 -2 -48 -4 -6 -3
-12 2 -12 5 0 7 -12 5 -27 -5 -35 -5 -41 0 -75 2 -16 0 -28 -6 -28 -6 0 -6 -5
0 -12 5 -7 8 -22 7 -33 -2 -21 -4 -77 -4 -107 0 -10 0 -25 0 -33 0 -8 0 -22 0
-30 0 -8 0 -22 0 -30 0 -8 0 -22 0 -30 0 -8 0 -21 0 -27 0 -7 1 -24 3 -38 2
-14 -1 -31 -6 -37 -6 -8 -6 -13 0 -13 6 0 8 -12 6 -27 -2 -16 -4 -32 -4 -38 1
-9 11 -153 13 -182 1 -7 5 -13 10 -13 5 0 6 -5 3 -10 -4 -6 2 -36 11 -68 10
-31 18 -59 19 -62 2 -8 36 -83 52 -115 46 -87 137 -197 221 -267 41 -34 157
-108 169 -108 7 0 13 -5 13 -12 0 -6 3 -8 7 -5 3 4 15 0 25 -10 10 -9 18 -13
18 -9 0 3 11 -1 24 -10 14 -8 26 -15 28 -14 2 1 23 -8 48 -19 25 -11 50 -21
57 -21 6 0 24 -5 40 -12 15 -6 33 -12 38 -13 6 -2 37 -11 70 -20 33 -10 72
-19 86 -20 15 -1 32 -6 39 -10 7 -4 31 -9 54 -11 22 -1 41 -3 41 -4 0 -1 11
-4 25 -6 15 -3 51 -33 89 -74 34 -39 88 -89 120 -113 64 -49 157 -107 170
-107 5 0 11 -4 13 -8 10 -23 304 -130 408 -147 14 -3 68 -13 120 -24 177 -35
307 -45 620 -45 218 -1 379 6 447 18 16 3 48 8 143 22 26 3 55 9 105 20 17 4
37 8 45 9 8 1 35 8 60 15 25 8 47 14 50 15 64 18 97 28 105 33 6 4 15 7 20 8
10 1 44 16 145 62 19 9 37 18 40 21 3 4 19 13 35 21 29 14 84 49 95 60 3 3 23
19 45 35 62 46 167 159 158 169 -4 3 -2 6 3 6 6 0 21 19 34 43 12 23 28 49 35
57 18 21 55 127 48 134 -4 3 -2 6 4 6 6 0 14 19 18 42 4 24 10 50 12 58 13 54
16 227 17 974 l1 838 55 -7 c72 -9 112 -14 185 -19 33 -3 60 -6 60 -6 0 -1 29
-3 64 -6 36 -2 67 -7 70 -10 3 -3 6 -279 7 -612 1 -334 5 -629 8 -657 11 -78
42 -190 58 -209 4 -6 8 -16 8 -23 0 -7 18 -43 40 -79 22 -36 40 -68 40 -70 0
-7 53 -66 110 -122 103 -101 242 -186 411 -252 46 -17 89 -33 94 -34 6 -2 30
-8 55 -15 25 -7 53 -15 62 -17 10 -2 28 -7 41 -10 12 -3 33 -8 47 -9 14 -2 25
-4 25 -5 0 -2 33 -9 75 -15 19 -2 51 -7 70 -10 19 -3 52 -8 73 -11 33 -4 62
-23 113 -71 7 -7 15 -13 18 -13 3 0 25 -14 51 -31 69 -47 185 -105 245 -123 3
-1 10 -4 15 -7 14 -8 131 -46 180 -58 22 -5 58 -15 80 -20 22 -6 67 -15 100
-21 33 -5 71 -12 85 -14 69 -13 206 -25 330 -31 41 -2 75 -4 75 -5 0 -1 12 -3
28 -4 15 -1 27 2 27 7 0 4 8 4 17 -2 10 -5 26 -5 40 0 13 5 23 5 23 1 0 -4 18
-7 40 -7 22 0 40 4 40 8 0 4 9 3 20 -3 11 -6 20 -7 20 -3 0 4 37 8 83 9 79 1
206 10 257 19 14 2 47 6 74 10 27 3 53 8 57 10 3 3 26 7 50 9 24 3 87 16 139
31 52 14 100 27 105 28 36 10 128 43 173 63 28 13 54 23 56 21 2 -1 12 5 22
14 11 9 27 19 36 22 10 3 50 27 90 54 95 62 226 194 277 281 39 65 87 175 96
217 2 11 4 20 5 20 2 0 8 28 17 80 4 22 9 832 10 1800 2 1111 6 1767 12 1780
25 52 57 132 66 165 1 3 5 13 9 22 5 10 9 29 10 43 0 14 4 25 7 25 4 0 38 113
44 150 1 3 6 30 13 60 15 75 27 148 39 245 16 128 8 601 -13 750 -3 22 -7 58
-9 80 -2 22 -4 40 -5 40 -3 0 -9 38 -15 90 -3 28 -8 58 -11 68 -3 11 -7 29 -9
40 -2 12 -6 33 -9 47 -9 38 -17 84 -17 92 0 4 -6 27 -15 50 -8 23 -17 54 -19
70 -3 15 -12 49 -21 74 -8 25 -16 54 -17 65 -1 10 -4 19 -8 19 -3 0 -12 25
-19 55 -7 30 -18 55 -23 55 -6 0 -8 3 -4 6 3 4 0 19 -9 35 -8 16 -14 30 -13
31 0 2 -4 16 -10 31 -6 16 -11 30 -11 33 0 10 -161 338 -168 344 -4 3 -13 16
-20 30 -16 32 -38 71 -51 90 -6 8 -36 53 -67 100 -49 73 -136 189 -169 226 -5
6 -30 35 -55 65 -53 63 -203 214 -281 282 -70 62 -315 247 -327 247 -5 0 -15
7 -22 15 -7 8 -24 21 -39 28 -63 33 -176 102 -179 109 -2 5 -8 6 -13 2 -5 -3
-9 0 -9 5 0 6 -8 11 -19 11 -10 0 -29 8 -42 18 -13 9 -40 24 -59 33 -57 27
-115 53 -120 55 -5 1 -69 28 -105 44 -60 26 -113 48 -140 55 -36 10 -36 10
-55 18 -52 22 -293 91 -390 113 -41 9 -82 19 -90 22 -8 2 -22 6 -30 7 -12 1
-92 16 -110 20 -9 2 -104 17 -125 21 -11 1 -38 5 -60 8 -22 3 -51 8 -65 10
-14 3 -52 7 -85 11 -33 3 -78 8 -100 10 -76 9 -170 17 -182 16 -20 -2 -34 -1
-113 4 -82 5 -824 5 -1150 0 -311 -5 -1028 -21 -1362 -30 -103 -2 -158 0 -158
6 0 6 -6 16 -12 23 -7 7 -22 25 -33 41 -41 56 -89 112 -144 165 -64 64 -185
160 -201 160 -5 0 -10 4 -10 8 0 10 -187 105 -206 105 -8 0 -14 4 -14 9 0 4
-3 7 -7 6 -5 -1 -28 5 -53 12 -59 18 -61 18 -90 24 -14 3 -36 8 -50 11 -71 16
-298 23 -370 11 -25 -4 -61 -10 -80 -12 -52 -8 -74 -12 -80 -15 -3 -1 -9 -3
-15 -4 -5 -2 -13 -4 -17 -5 -5 -1 -11 -3 -15 -5 -5 -1 -17 -5 -28 -9 -11 -4
-33 -13 -50 -19 -41 -14 -136 -55 -158 -68 -20 -11 -73 -3 -82 11 -3 5 -31 20
-63 35 -31 14 -69 33 -84 41 -16 8 -28 12 -28 8 0 -3 -6 -2 -12 3 -7 6 -35 16
-63 22 -50 13 -73 19 -78 22 -1 1 -35 7 -76 14 -82 14 -262 16 -331 3z"/>
</g>
</svg>
