<?xml version="1.0" encoding="utf-8"?>
<svg version="1.1" id="creoline" xmlns="http://www.w3.org/2000/svg" x="0px" y="0px" viewBox="0 0 640.8 168" style="enable-background:new 0 0 640.8 168;" xml:space="preserve">
<g fill="#ffffff">
	<g>
		<path class="st0" d="M178.6,69.7l-35.1-56.2c-2.2-3.5-6-5.6-10.1-5.6H94.9l42.5,74.5L92.8,157h37.7c6.5,0,12.5-3.4,15.8-9
			l32.6-55.2C183.1,85.6,183,76.7,178.6,69.7z"/>
		<path class="st0" d="M80.2,118.7c-1.4,0-2.8-0.7-3.5-2l-17-27.9c-2.4-4-2.5-8.9-0.2-13L74,50c1.9-3.4,5.6-5.6,9.5-5.6h23.9
			L87.3,7.9H66.6c-6.6,0-12.7,3.5-16,9.2L18.1,72.8c-2.4,4.1-2.5,9.2-0.2,13.4l33.1,60c3.7,6.7,10.7,10.8,18.3,10.8h15.5l23.1-38.3
			H80.2z"/>
	</g>
	<path class="st0" d="M107.9,118.7"/>
</g>
<g fill="#ffffff">
	<path class="st1" d="M214.1,84.9c0-18.8,13.6-29.6,29.2-29.6c7.5,0,12.8,2.8,17.1,6.3l-6.6,8.6c-3.1-2.6-6.1-4.1-9.7-4.1
		c-9.4,0-15.9,7.5-15.9,18.8c0,11.3,6.4,18.7,15.5,18.7c4.5,0,8.7-2.2,12-4.8l5.6,8.7c-5.5,4.6-12.3,6.9-19,6.9
		C226.4,114.4,214.1,103.6,214.1,84.9z"/>
	<path class="st1" d="M272.8,56.6H284l0.9,10h0.5c4.2-7.4,10.3-11.4,16.5-11.4c3,0,4.9,0.3,6.6,1.1l-2.4,11.5
		c-2-0.6-3.6-0.9-6.1-0.9c-4.6,0-10.2,3.1-13.8,11.6V113h-13.6V56.6z"/>
	<path class="st1" d="M312,84.9c0-18.4,13.2-29.6,26.8-29.6c15.8,0,24.1,11,24.1,26.8c0,2.5-0.2,5.1-0.6,6.4h-37
		c1.2,10,7.8,15.7,17.2,15.7c5,0,9.3-1.5,13.5-4.1l4.6,8.3c-5.6,3.6-12.6,6.1-19.9,6.1C324.6,114.4,312,103.5,312,84.9z M351.1,79.5
		c0-8.7-3.9-14-11.9-14c-6.9,0-12.8,4.9-14,14H351.1z"/>
	<path class="st1" d="M372.2,84.9c0-18.8,13.2-29.6,27.6-29.6c14.6,0,27.8,10.8,27.8,29.6c0,18.7-13.2,29.5-27.8,29.5
		C385.3,114.4,372.2,103.6,372.2,84.9z M413.6,84.9c0-11.4-5.2-18.8-13.8-18.8c-8.5,0-13.6,7.5-13.6,18.8c0,11.3,5.1,18.7,13.6,18.7
		C408.4,103.6,413.6,96.2,413.6,84.9z"/>
	<path class="st1" d="M441.1,98.6V32h13.6v67.3c0,3.2,1.5,4.4,3,4.4c0.6,0,1.1,0,2.1-0.2l1.8,9.9c-1.7,0.7-4,1.1-7.2,1.1
		C444.7,114.4,441.1,108.3,441.1,98.6z"/>
	<path class="st1" d="M471.7,39.3c0-4.5,3.6-7.6,8.4-7.6s8.4,3.1,8.4,7.6c0,4.4-3.6,7.5-8.4,7.5S471.7,43.7,471.7,39.3z M473.3,56.6
		h13.6V113h-13.6V56.6z"/>
	<path class="st1" d="M504.3,56.6h11.3l0.9,7.6h0.5c5.2-4.9,11.2-9,19.1-9c12.5,0,17.9,8.2,17.9,22.4V113h-13.6V79.4
		c0-9.3-2.7-12.7-9.1-12.7c-5.1,0-8.4,2.4-13.3,7V113h-13.6V56.6z"/>
	<path class="st1" d="M567,84.9c0-18.4,13.2-29.6,26.8-29.6c15.8,0,24.1,11,24.1,26.8c0,2.5-0.2,5.1-0.6,6.4h-37
		c1.2,10,7.8,15.7,17.2,15.7c5,0,9.3-1.5,13.5-4.1l4.6,8.3c-5.6,3.6-12.6,6.1-19.9,6.1C579.6,114.4,567,103.5,567,84.9z M606,79.5
		c0-8.7-3.9-14-11.9-14c-6.9,0-12.8,4.9-14,14H606z"/>
</g>
<g fill="#ffffff">
	<path class="st1" d="M613.3,52.3c0-3.9,2.8-6.6,6.3-6.6c3.4,0,6.3,2.7,6.3,6.6s-2.8,6.6-6.3,6.6C616.1,58.9,613.3,56.2,613.3,52.3z
		 M624.5,52.3c0-3.1-2.1-5.4-5-5.4c-2.8,0-5,2.2-5,5.4c0,3.2,2.2,5.4,5,5.4C622.4,57.7,624.5,55.5,624.5,52.3z M617.1,48.8h2.5
		c1.4,0,2.6,0.6,2.6,2.2c0,0.8-0.5,1.6-1.3,1.8l1.5,2.8h-1.5l-1.2-2.3h-1.4v2.3h-1.4V48.8z M619.4,52.2c0.9,0,1.4-0.4,1.4-1.1
		c0-0.6-0.4-1.1-1.4-1.1h-0.9v2.2H619.4z"/>
</g>
</svg>
