<svg xmlns="http://www.w3.org/2000/svg" viewBox="0 0 304.26 240"><defs><style>.cls-1{fill:#9d9d9c;}</style></defs><title>Asset 3</title><g id="Layer_2" data-name="Layer 2"><g id="svg2"><path class="cls-1" d="M304.26,101.65c0-25-8.13-46.26-23.5-61.61C264,23.31,239,14.46,208.52,14.46h0c-.19,0-14.76-.14-60,1A33.56,33.56,0,0,0,137.65,4.78c-12-7.14-24.2-3-25.56-2.46h0c-1.74.65-3.6,1.44-5.52,2.32A30.55,30.55,0,0,0,99.5,1.31a29.1,29.1,0,0,0-23.71,3c-5.94,3.9-13.06,10.39-18.79,16C0,29.93,0,59.2,0,97.58V215.43c0,10.11,8,16.16,21.51,16.16S43,225.54,43,215.43c0-.13,2.39-32.24,4.41-51.6.81-12.63,4.19-20.46,10.31-24.05,3.79-2.22,8.68-2.81,14.38-2.26v64c0,14,10,22.8,28.51,25.5,6.12,8.45,19,13,37.66,13,26.93,0,41.76-9.38,41.76-26.4V173.08a97.92,97.92,0,0,0,11,1.12v28.19c0,14.69,11,23.67,31.39,25.86,6.85,6.4,18.65,9.78,34.83,9.78,26.93,0,41.76-9.37,41.76-26.4V128.78a2.66,2.66,0,0,0-.31-1.22A60.36,60.36,0,0,0,304.26,101.65Z"/></g></g></svg>